<svg width="27" height="20" viewBox="0 0 27 20" fill="none" xmlns="http://www.w3.org/2000/svg">
<path d="M26.6439 10.3L25.8203 8.03673C25.7317 7.79346 25.4591 7.66668 25.2077 7.75175C24.2865 8.06373 23.2729 7.59217 22.9485 6.70077C22.6241 5.80938 23.1008 4.8058 24.0111 4.46368C24.2596 4.37027 24.3878 4.10036 24.2992 3.85709L23.4756 1.5938C23.3333 1.2028 23.0431 0.891065 22.6584 0.715996C22.2737 0.540984 21.8406 0.523625 21.4389 0.667008L5.23352 6.45351C4.83582 6.59552 4.5162 6.87847 4.33179 7.25075L2.13614 7.75824C1.27781 7.95673 0.736832 8.79871 0.930187 9.63525L1.47238 11.981C1.53066 12.2332 1.78561 12.3908 2.04523 12.3353C2.99667 12.1319 3.94446 12.7181 4.158 13.642C4.37154 14.5658 3.77711 15.5085 2.83293 15.7433C2.57527 15.8073 2.41537 16.0608 2.47365 16.313L3.01584 18.6587C3.20919 19.4952 4.06478 20.0144 4.92313 19.816L18.2806 16.7286L21.6945 15.9396C22.5528 15.7412 23.0938 14.8992 22.9004 14.0626L22.7356 13.3495L25.6725 12.3009C26.0743 12.1574 26.3966 11.8703 26.5801 11.4923C26.7635 11.1144 26.7862 10.691 26.6439 10.3ZM21.5978 12.7483L21.8129 13.679L21.9522 14.2818C22.0278 14.6087 21.8164 14.9378 21.4809 15.0154L18.5411 15.6948L18.3602 14.9119L18.3409 14.8285C18.2819 14.5732 18.0218 14.4154 17.76 14.4759C17.4981 14.5365 17.3336 14.7924 17.3926 15.0476L17.4374 15.2414L17.5929 15.914L11.8114 17.2503L8.30253 18.0613L4.7095 18.8918C4.37406 18.9693 4.03963 18.7664 3.96406 18.4394L3.51786 16.509C4.02756 16.2865 4.45812 15.9195 4.7574 15.4457C5.14283 14.8355 5.26671 14.1171 5.10623 13.4228C4.94575 12.7284 4.51918 12.1373 3.90507 11.7581C3.42817 11.4637 2.88029 11.3229 2.32464 11.3466L1.87843 9.41608C1.80286 9.08914 2.01428 8.76003 2.34976 8.68249L4.20452 8.25379L5.15352 8.03444L15.2332 5.70466L16.5338 11.3317C16.5928 11.5869 16.8529 11.7447 17.1147 11.6842C17.3766 11.6237 17.541 11.3677 17.482 11.1125L16.1814 5.48554L19.1212 4.80606C19.4566 4.72852 19.7911 4.93142 19.8666 5.2584L20.3128 7.18891C19.8031 7.41143 19.3726 7.77839 19.0732 8.25224C18.6878 8.86243 18.564 9.58083 18.7245 10.2751C18.8849 10.9694 19.3115 11.5606 19.9256 11.9398C20.4025 12.2342 20.9504 12.375 21.5061 12.3513L21.5978 12.7482L21.5978 12.7483ZM25.7027 11.0932C25.631 11.2409 25.505 11.3531 25.348 11.4092L22.5205 12.4188L22.3583 11.7169C22.3 11.4647 22.045 11.3071 21.7854 11.3626C20.834 11.566 19.8862 10.9798 19.6726 10.0559C19.4591 9.13196 20.0535 8.18937 20.9977 7.95463C21.2554 7.89054 21.4153 7.63702 21.357 7.38485L20.8148 5.0391C20.6214 4.20251 19.7658 3.68333 18.9075 3.88173L15.4936 4.6708L8.55876 6.27369L21.7634 1.55877C21.9203 1.50269 22.0897 1.50949 22.24 1.57788C22.3904 1.64628 22.5038 1.76815 22.5594 1.92095L23.2373 3.78361C22.7575 4.06332 22.3739 4.47706 22.1337 4.98158C21.8246 5.6313 21.7885 6.35803 22.0323 7.02792C22.2761 7.69781 22.772 8.23466 23.4285 8.53952C23.9384 8.77629 24.5002 8.85239 25.0498 8.76454L25.7277 10.6272C25.7833 10.78 25.7744 10.9455 25.7027 11.0932Z" fill="white"/>
</svg>
