<svg width="24" height="24" viewBox="0 0 24 24" fill="none" xmlns="http://www.w3.org/2000/svg">
<path d="M6.2169 20.3857C5.97734 20.6252 5.97737 21.0136 6.21689 21.2531L8.53015 23.5664C8.76971 23.8059 9.15809 23.8059 9.39762 23.5664L23.5664 9.3976C23.8059 9.15808 23.8059 8.76969 23.5664 8.53014L21.2531 6.21688C21.0136 5.97732 20.6252 5.97735 20.3857 6.21688C19.6682 6.93436 18.5007 6.93439 17.7832 6.21688C17.0657 5.49937 17.0657 4.33194 17.7832 3.61443C18.0227 3.37491 18.0228 2.98652 17.7832 2.74697L15.47 0.433713C15.2304 0.194161 14.842 0.194191 14.6025 0.433713L0.433732 14.6025C0.19418 14.842 0.194208 15.2304 0.433731 15.4699L2.74699 17.7832C2.98654 18.0228 3.37493 18.0227 3.61445 17.7832C4.33193 17.0657 5.49939 17.0657 6.2169 17.7832C6.93441 18.5007 6.93441 19.6681 6.2169 20.3857ZM3.2243 16.5256L1.73492 15.0362L10.8434 5.92772L12.1446 7.22895C12.3842 7.4685 12.7726 7.46847 13.0121 7.22895C13.2516 6.98942 13.2516 6.60101 13.0121 6.36148L11.7109 5.06026L15.0362 1.73491L16.5256 3.22429C15.7385 4.41447 15.8685 6.03706 16.9158 7.08434C17.963 8.13162 19.5857 8.26166 20.7758 7.47449L22.2652 8.96387L18.9399 12.2892L17.6386 10.988C17.3991 10.7484 17.0107 10.7485 16.7712 10.988C16.5317 11.2275 16.5317 11.6159 16.7712 11.8554L18.0724 13.1567L8.96392 22.2652L7.47454 20.7758C8.26168 19.5856 8.13167 17.963 7.08439 16.9157C6.03711 15.8684 4.41446 15.7384 3.2243 16.5256Z" fill="white"/>
</svg>
