<svg width="20" height="20" viewBox="0 0 20 20" fill="none" xmlns="http://www.w3.org/2000/svg">
<path d="M5.85938 7.69531C2.62852 7.69531 0 10.3238 0 13.5547C0 16.7855 2.62852 19.4141 5.85938 19.4141C9.09023 19.4141 11.7188 16.7855 11.7188 13.5547C11.7188 10.3238 9.09023 7.69531 5.85938 7.69531ZM5.85938 17.8516C3.49008 17.8516 1.5625 15.924 1.5625 13.5547C1.5625 11.1854 3.49008 9.25781 5.85938 9.25781C8.22867 9.25781 10.1562 11.1854 10.1562 13.5547C10.1562 15.924 8.22867 17.8516 5.85938 17.8516ZM5.85938 11.2109C4.56703 11.2109 3.51562 12.2623 3.51562 13.5547C3.51562 14.847 4.56703 15.8984 5.85938 15.8984C7.15172 15.8984 8.20312 14.847 8.20312 13.5547C8.20312 12.2623 7.15172 11.2109 5.85938 11.2109ZM5.85938 14.3359C5.42859 14.3359 5.07812 13.9855 5.07812 13.5547C5.07812 13.1239 5.42859 12.7734 5.85938 12.7734C6.29016 12.7734 6.64062 13.1239 6.64062 13.5547C6.64062 13.9855 6.29016 14.3359 5.85938 14.3359ZM20 13.5547C20 16.7855 17.3715 19.4141 14.1406 19.4141C13.4764 19.4141 12.8244 19.3036 12.2026 19.0857C11.7954 18.943 11.581 18.4973 11.7236 18.0901C11.8663 17.6829 12.3121 17.4685 12.7193 17.6111C13.1746 17.7707 13.6528 17.8516 14.1406 17.8516C16.5099 17.8516 18.4375 15.924 18.4375 13.5547C18.4375 11.1854 16.5099 9.25781 14.1406 9.25781C13.6287 9.25781 13.1283 9.34668 12.6533 9.52199C12.2485 9.67133 11.7993 9.4643 11.6498 9.05949C11.5005 8.65473 11.7076 8.20547 12.1123 8.05609C12.7612 7.81668 13.4436 7.69531 14.1406 7.69531C17.3715 7.69531 20 10.3238 20 13.5547ZM4.16949 5.86031C4.31238 4.42105 4.98219 3.09004 6.05547 2.11246C7.13625 1.12805 8.53715 0.585938 10 0.585938C11.455 0.585938 12.8502 1.12297 13.9286 2.09805C14.999 3.0659 15.6728 4.38602 15.8258 5.81527C15.8718 6.2443 15.5612 6.62934 15.1321 6.67527C14.7034 6.72117 14.3181 6.41062 14.2721 5.98164C14.0382 3.79637 12.2016 2.14844 10 2.14844C7.78133 2.14844 5.9432 3.81055 5.72438 6.01469C5.68438 6.41777 5.34457 6.71879 4.94789 6.71879C4.92203 6.71879 4.89602 6.7175 4.86977 6.71492C4.44039 6.6723 4.12687 6.28969 4.16949 5.86031ZM12.3322 6.21187C12.3748 6.64125 12.0613 7.02387 11.632 7.06648C11.6057 7.06906 11.5796 7.07035 11.5539 7.07035C11.1571 7.07035 10.8174 6.76934 10.7773 6.36625C10.7376 5.96594 10.4034 5.66406 10 5.66406C9.6066 5.66406 9.27332 5.9575 9.22484 6.34664C9.17148 6.7748 8.78137 7.07891 8.35293 7.02523C7.92477 6.97187 7.62098 6.58148 7.67434 6.15336C7.82016 4.98363 8.82 4.10156 10 4.10156C11.2101 4.10156 12.2128 5.00879 12.3322 6.21187ZM14.693 14.1071C14.9977 13.8025 14.9977 13.3069 14.693 13.0023C14.4709 12.7801 14.139 12.7127 13.8473 12.8305C13.4472 12.9921 12.992 12.7988 12.8304 12.3987C12.6687 11.9987 12.8621 11.5434 13.2621 11.3818C14.1362 11.0286 15.1316 11.2311 15.798 11.8974C16.7118 12.8112 16.7118 14.2981 15.798 15.212C15.3493 15.6606 14.7513 15.899 14.1418 15.899C13.8461 15.899 13.5477 15.8429 13.2621 15.7276C12.8621 15.566 12.6687 15.1107 12.8304 14.7106C12.992 14.3105 13.4474 14.1173 13.8473 14.2788C14.139 14.3967 14.4709 14.3293 14.693 14.1071Z" fill="white"/>
</svg>
